<?xml version="1.0" encoding="UTF-8" standalone="no"?>
<svg
   version="1.1"
   width="85.778137pt"
   height="118.50156pt"
   viewBox="0 0 85.778138 118.50156"
   id="svg9"
   xmlns:xlink="http://www.w3.org/1999/xlink"
   xmlns="http://www.w3.org/2000/svg"
   xmlns:svg="http://www.w3.org/2000/svg">
  <defs
     id="defs9" />
  <g
     enable-background="new"
     id="g9"
     transform="translate(-826.4309,-354.5328)">
    <symbol
       id="font_0_7">
      <path
         d="m 0.40300004,0.60700008 c 0.007,0.028 0.011,0.034 0.023,0.037 0.009,0.002 0.042,0.002 0.063,0.002 0.10100003,0 0.14600004,-0.004 0.14600004,-0.082 0,-0.015 -0.004,-0.0539999 -0.008,-0.08 -9.9999e-4,-0.004 -0.003,-0.016 -0.003,-0.019 0,-0.006 0.003,-0.013 0.0120001,-0.013 0.0109999,0 0.013,0.008 0.0149999,0.023 l 0.0270001,0.17400004 c 9.9994e-4,0.004 0.002,0.014 0.002,0.0169999 0,0.0110001 -0.0100001,0.0110001 -0.027,0.0110001 H 0.09800001 C 0.074,0.67700007 0.073,0.67600008 0.066,0.657 L 0.006,0.48100005 c -0.001,-0.002 -0.006,-0.016 -0.006,-0.018 0,-0.006 0.005,-0.011 0.012,-0.011 0.01,0 0.011,0.005 0.017,0.021 C 0.08300001,0.628 0.109,0.646 0.25700004,0.646 h 0.039 c 0.028,0 0.028,-0.004 0.028,-0.012 0,-0.006 -0.003,-0.0179999 -0.004,-0.0209999 L 0.186,0.079 C 0.177,0.04200001 0.174,0.031 0.067,0.031 0.031,0.031 0.025,0.031 0.025,0.012 0.025,0 0.036,0 0.042,0 c 0.02700001,0 0.055,0.002 0.082,0.002 0.028,0 0.057,0.001 0.085,0.001 0.028,0 0.056,-0.001 0.083,-0.001 C 0.321,0.002 0.351,0 0.379,0 c 0.01,0 0.022,0 0.022,0.02 0,0.011 -0.008,0.011 -0.034,0.011 -0.025,0 -0.038,0 -0.064,0.002 -0.029,0.003 -0.037,0.006 -0.037,0.02200001 0,9.9999e-4 0,0.006 0.004,0.021 z"
         id="path1" />
    </symbol>
    <symbol
       id="font_0_2">
      <path
         d="m 0.12000001,0.04800001 c -0.004,-0.01300001 -0.005,-0.015 -0.005,-0.02000001 0,-0.022 0.019,-0.028 0.029,-0.028 0.005,0 0.027,0.00300001 0.037,0.02600001 0.003,0.008 0.008,0.04099999 0.035,0.18299999 0.009,-0.001 0.016,-0.002 0.033,-0.002 C 0.41500003,0.207 0.569,0.36400003 0.569,0.522 0.569,0.6 0.53000006,0.66 0.45499999,0.66 0.31,0.66 0.25,0.46600003 0.19000001,0.27100004 c -0.10800001,0.02 -0.164,0.076 -0.164,0.148 0,0.028 0.023,0.13800003 0.083,0.20700003 0.008,0.009 0.008,0.0109999 0.008,0.013 0,0.004 -0.002,0.01 -0.012,0.01 C 0.07700001,0.64900007 0,0.504 0,0.40800003 0,0.314 0.066,0.24100001 0.17300001,0.216 l -0.053,-0.16799999 m 0.13800002,0.21700002 c -0.008,0 -0.01,0 -0.018,9.9997e-4 -0.012,0 -0.013,0.001 -0.013,0.004 0,0.002 0.017,0.0930001 0.02,0.10800003 C 0.278,0.50600007 0.356,0.602 0.44500003,0.602 0.514,0.602 0.541,0.54800006 0.541,0.5 0.541,0.38700003 0.412,0.26500003 0.25800003,0.26500003 Z"
         id="path2" />
    </symbol>
    <use
       xlink:href="#font_0_7"
       transform="matrix(27.673888,0,0,-27.673888,826.43087,374.3473)"
       id="use2" />
    <use
       xlink:href="#font_0_2"
       transform="matrix(27.673888,0,0,-27.673888,856.37399,380.3802)"
       id="use3" />
    <symbol
       id="font_1_1">
      <path
         d="M 0.65400007,0.143 C 0.651,0.064 0.587,0.031 0.54200008,0.031 c -0.054,0 -0.10600005,0.051 -0.13800008,0.08900001 0.046,0.053 0.086,0.121 0.132,0.20000002 0.0390001,0.066 0.06,0.10100001 0.14900009,0.102 v 0.031 c -0.037,-0.002 -0.091,-0.003 -0.097,-0.003 -0.0110001,0 -0.095,9.9998e-4 -0.12200005,0.003 v -0.031 c 0.046,0 0.071,-0.019 0.071,-0.044 0,-0.01 -0.005,-0.017 -0.006,-0.02 C 0.476,0.261 0.43100003,0.193 0.388,0.14000002 c -0.013,0.015 -0.12199996,0.15200002 -0.166,0.26700002 0.054,0.06 0.122,0.13600003 0.122,0.20199996 0,0.0460001 -0.016,0.12900006 -0.087,0.12900006 -0.062,0 -0.136,-0.0550001 -0.136,-0.16100006 0,-0.042 0.006,-0.11399996 0.041,-0.20299995 l -0.091,-0.097 C 0.026,0.231 0,0.20400001 0,0.15 0,0.063 0.082,0 0.181,0 0.266,0 0.32500003,0.04300001 0.36200003,0.07600001 0.43100003,0.016 0.49,0 0.53800007,0 0.614,0 0.67700007,0.05700001 0.679,0.143 H 0.65400007 M 0.21400002,0.43100003 c -0.027,0.08 -0.03,0.13800006 -0.03,0.16899997 0,0.0840001 0.04,0.116 0.075,0.116 0.06,0 0.06,-0.10399993 0.06,-0.106 0,-0.066 -0.081,-0.15299994 -0.10500003,-0.17899997 m -0.043,-0.08 c 0.022,-0.047 0.037,-0.077 0.08,-0.13900004 0.019,-0.028 0.055,-0.08 0.092,-0.117 C 0.279,0.038 0.21700001,0.031 0.18900001,0.031 0.106,0.031 0.083,0.128 0.083,0.18200001 c 0,0.081 0.03400001,0.11700002 0.08799999,0.16900002 z"
         id="path3" />
    </symbol>
    <use
       xlink:href="#font_1_1"
       transform="matrix(27.673888,0,0,-27.673888,874.2734,374.95613)"
       id="use4" />
    <symbol
       id="font_0_1">
      <path
         d="m 0.453,0.873 c 0.001,0.004 0.003,0.01 0.003,0.015 0,0.01 -0.007,0.0110001 -0.012,0.0110001 -0.01,0 -0.011,-0.002 -0.015,-0.02 L 0.263,0.21800001 c -0.076,0.009 -0.114,0.046 -0.114,0.11199999 0,0.02 0,0.046 0.054,0.18600006 0.004,0.0119999 0.011,0.0289999 0.011,0.049 0,0.0449999 -0.032,0.082 -0.082,0.082 -0.095,4e-8 -0.132,-0.145 -0.132,-0.15400002 0,-0.01 0.01,-0.01 0.012,-0.01 0.01,0 0.011,0.002 0.016,0.018 C 0.05500001,0.5960001 0.09500001,0.625 0.12900001,0.625 c 0.008,0 0.025,0 0.025,-0.0319999 0,-0.026 -0.01,-0.051 -0.023,-0.0860001 -0.048,-0.12599995 -0.048,-0.15199997 -0.048,-0.169 0,-0.095 0.07800001,-0.136 0.17399999,-0.14199999 -0.008,-0.036 -0.008,-0.038 -0.022,-0.091 -0.003,-0.011 -0.023,-0.092 -0.023,-0.095 C 0.212,0.009 0.212,0 0.224,0 0.226,0 0.231,0 0.233,0.00400001 0.236,0.006 0.242,0.031 0.245,0.045 l 0.038,0.149 c 0.037,0 0.125,0 0.21900006,0.107 0.041,0.046 0.062,0.09 0.073,0.12 0.009,0.025 0.031,0.112 0.031,0.156 0,0.056 -0.027,0.0700001 -0.044,0.0700001 -0.025,0 -0.0500001,-0.026 -0.0500001,-0.048 0,-0.0130001 0.006,-0.019 0.0150001,-0.0270001 0.011,-0.011 0.0359999,-0.037 0.0359999,-0.085 0,-0.064 -0.0519999,-0.146 -0.087,-0.18200003 -0.088,-0.089 -0.15199999,-0.089 -0.18799999,-0.089 z"
         id="path4" />
    </symbol>
    <use
       xlink:href="#font_0_1"
       transform="matrix(27.673888,0,0,-27.673888,895.4386,380.02046)"
       id="use5" />
    <path
       transform="matrix(2.7673999,0,0,-2.7673999,869.7111,410.9056)"
       stroke-width="0.39998"
       stroke-linecap="butt"
       stroke-miterlimit="10"
       stroke-linejoin="miter"
       fill="none"
       stroke="#000000"
       d="M 0,0 V 8.61108"
       id="path5" />
    <use
       xlink:href="#font_0_7"
       transform="matrix(27.673888,0,0,-27.673888,846.70309,434.15284)"
       id="use6" />
    <use
       xlink:href="#font_0_2"
       transform="matrix(27.673888,0,0,-27.673888,876.6462,440.18574)"
       id="use7" />
    <use
       xlink:href="#font_0_7"
       transform="matrix(27.673888,0,0,-27.673888,846.2447,467.3612)"
       id="use8" />
    <use
       xlink:href="#font_0_1"
       transform="matrix(27.673888,0,0,-27.673888,875.6067,473.03437)"
       id="use9" />
  </g>
</svg>
