<?xml version="1.0" encoding="UTF-8" standalone="no"?>
<svg
   version="1.1"
   width="128.31958pt"
   height="87.479439pt"
   viewBox="0 0 128.31958 87.479439"
   id="svg15"
   xmlns:xlink="http://www.w3.org/1999/xlink"
   xmlns="http://www.w3.org/2000/svg"
   xmlns:svg="http://www.w3.org/2000/svg">
  <defs
     id="defs15" />
  <g
     enable-background="new"
     id="g15"
     transform="translate(-804.50037,-353.59189)">
    <symbol
       id="font_0_7">
      <path
         d="m 0.40300004,0.60700008 c 0.007,0.028 0.011,0.034 0.023,0.037 0.009,0.002 0.042,0.002 0.063,0.002 0.10100003,0 0.14600004,-0.004 0.14600004,-0.082 0,-0.015 -0.004,-0.0539999 -0.008,-0.08 -9.9999e-4,-0.004 -0.003,-0.016 -0.003,-0.019 0,-0.006 0.003,-0.013 0.0120001,-0.013 0.0109999,0 0.013,0.008 0.0149999,0.023 l 0.0270001,0.17400004 c 9.9994e-4,0.004 0.002,0.014 0.002,0.0169999 0,0.0110001 -0.0100001,0.0110001 -0.027,0.0110001 H 0.09800001 C 0.074,0.67700007 0.073,0.67600008 0.066,0.657 L 0.006,0.48100005 c -0.001,-0.002 -0.006,-0.016 -0.006,-0.018 0,-0.006 0.005,-0.011 0.012,-0.011 0.01,0 0.011,0.005 0.017,0.021 C 0.08300001,0.628 0.109,0.646 0.25700004,0.646 h 0.039 c 0.028,0 0.028,-0.004 0.028,-0.012 0,-0.006 -0.003,-0.0179999 -0.004,-0.0209999 L 0.186,0.079 C 0.177,0.04200001 0.174,0.031 0.067,0.031 0.031,0.031 0.025,0.031 0.025,0.012 0.025,0 0.036,0 0.042,0 c 0.02700001,0 0.055,0.002 0.082,0.002 0.028,0 0.057,0.001 0.085,0.001 0.028,0 0.056,-0.001 0.083,-0.001 C 0.321,0.002 0.351,0 0.379,0 c 0.01,0 0.022,0 0.022,0.02 0,0.011 -0.008,0.011 -0.034,0.011 -0.025,0 -0.038,0 -0.064,0.002 -0.029,0.003 -0.037,0.006 -0.037,0.02200001 0,9.9999e-4 0,0.006 0.004,0.021 z"
         id="path1" />
    </symbol>
    <symbol
       id="font_0_5">
      <path
         d="m 0.67,0.23300001 c 0.002,0.005 0.005,0.012 0.005,0.014 0,0.001 0,0.011 -0.012,0.011 -0.009,0 -0.011,-0.006 -0.013,-0.012 -0.065,-0.14799999 -0.102,-0.215 -0.27300002,-0.215 H 0.23100002 c -0.014,0 -0.016,0 -0.022,0.001 -0.01,0.001 -0.013,0.002 -0.013,0.01000001 0,0.003 0,0.005 0.005,0.023 l 0.068,0.27300003 h 0.099 c 0.085,0 0.085,-0.021 0.085,-0.046 0,-0.007 0,-0.019 -0.007,-0.049 -0.002,-0.005 -0.003,-0.008 -0.003,-0.011 0,-0.005 0.004,-0.011 0.013,-0.011 0.008,0 0.011,0.005 0.015,0.02 l 0.057,0.23400002 c 0,0.006 -0.005,0.011 -0.012,0.011 -0.009,0 -0.011,-0.006 -0.014,-0.018 -0.021,-0.076 -0.039,-0.099 -0.13100006,-0.099 H 0.277 L 0.337,0.61 c 0.009,0.0350001 0.01,0.0390001 0.054,0.0390001 h 0.14100005 c 0.12199998,0 0.15200001,-0.0290001 0.15200001,-0.111 0,-0.0240001 0,-0.0260001 -0.004,-0.0530001 0,-0.006 -0.001,-0.013 -0.001,-0.018 0,-0.005 0.003,-0.012 0.0120001,-0.012 0.0109999,0 0.012,0.006 0.014,0.025 L 0.725,0.65300008 C 0.72800007,0.68 0.72300007,0.68 0.6980001,0.68 H 0.193 c -0.02,0 -0.03,0 -0.03,-0.02 0,-0.0109999 0.009,-0.0109999 0.028,-0.0109999 0.037,0 0.065,0 0.065,-0.018 0,-0.004 0,-0.006 -0.005,-0.024 L 0.119,0.078 C 0.109,0.039 0.10700001,0.031 0.028,0.031 0.011,0.031 0,0.031 0,0.012 0,0 0.009,0 0.028,0 h 0.51900008 c 0.023,0 0.024,0.001 0.031,0.017 z"
         id="path2" />
    </symbol>
    <symbol
       id="font_0_a">
      <path
         d="m 0.305,0.31300003 c 0.006,0.026 0.029,0.118 0.099,0.118 0.005,0 0.029,0 0.05,-0.013 -0.028,-0.005 -0.048,-0.03 -0.048,-0.054 0,-0.016 0.011,-0.035 0.038,-0.035 0.022,0 0.054,0.018 0.054,0.058 0,0.052 -0.059,0.066 -0.093,0.066 -0.058,0 -0.093,-0.053 -0.105,-0.076 -0.025,0.066 -0.079,0.076 -0.10799998,0.076 -0.10400001,2e-8 -0.16100002,-0.12899999 -0.16100002,-0.154 0,-0.01 0.01,-0.01 0.01200001,-0.01 0.008,0 0.011,0.002 0.01299999,0.011 0.034,0.10600003 0.1,0.13100003 0.13400001,0.13100003 0.019,0 0.054,-0.009 0.054,-0.067 0,-0.031 -0.017,-0.098 -0.054,-0.23800003 -0.016,-0.062 -0.051,-0.104 -0.095,-0.104 -0.006,0 -0.029,0 -0.05000001,0.013 0.02500001,0.005 0.04700001,0.026 0.04700001,0.054 0,0.02700001 -0.022,0.03500001 -0.037,0.03500001 C 0.025,0.12400001 0,0.09800001 0,0.06600001 0,0.02 0.05000001,0 0.09400001,0 c 0.066,0 0.102,0.07000001 0.10500001,0.07600001 C 0.21100001,0.039 0.24700003,0 0.307,0 c 0.103,0 0.16,0.12900001 0.16,0.15400002 0,0.01 -0.009,0.01 -0.012,0.01 -0.009,0 -0.011,-0.004 -0.013,-0.011 C 0.409,0.046 0.341,0.022 0.30900003,0.022 c -0.039,0 -0.055,0.032 -0.055,0.06600001 0,0.022 0.006,0.04400001 0.017,0.08800001 z"
         id="path3" />
    </symbol>
    <symbol
       id="font_0_2">
      <path
         d="m 0.12000001,0.04800001 c -0.004,-0.01300001 -0.005,-0.015 -0.005,-0.02000001 0,-0.022 0.019,-0.028 0.029,-0.028 0.005,0 0.027,0.00300001 0.037,0.02600001 0.003,0.008 0.008,0.04099999 0.035,0.18299999 0.009,-0.001 0.016,-0.002 0.033,-0.002 C 0.41500003,0.207 0.569,0.36400003 0.569,0.522 0.569,0.6 0.53000006,0.66 0.45499999,0.66 0.31,0.66 0.25,0.46600003 0.19000001,0.27100004 c -0.10800001,0.02 -0.164,0.076 -0.164,0.148 0,0.028 0.023,0.13800003 0.083,0.20700003 0.008,0.009 0.008,0.0109999 0.008,0.013 0,0.004 -0.002,0.01 -0.012,0.01 C 0.07700001,0.64900007 0,0.504 0,0.40800003 0,0.314 0.066,0.24100001 0.17300001,0.216 l -0.053,-0.16799999 m 0.13800002,0.21700002 c -0.008,0 -0.01,0 -0.018,9.9997e-4 -0.012,0 -0.013,0.001 -0.013,0.004 0,0.002 0.017,0.0930001 0.02,0.10800003 C 0.278,0.50600007 0.356,0.602 0.44500003,0.602 0.514,0.602 0.541,0.54800006 0.541,0.5 0.541,0.38700003 0.412,0.26500003 0.25800003,0.26500003 Z"
         id="path4" />
    </symbol>
    <use
       xlink:href="#font_0_7"
       transform="matrix(27.673888,0,0,-27.673888,804.5003,374.3473)"
       id="use4" />
    <use
       xlink:href="#font_0_5"
       transform="matrix(27.673888,0,0,-27.673888,834.1114,374.3473)"
       id="use5" />
    <use
       xlink:href="#font_0_a"
       transform="matrix(27.673888,0,0,-27.673888,855.8906,374.6517)"
       id="use6" />
    <use
       xlink:href="#font_0_2"
       transform="matrix(27.673888,0,0,-27.673888,881.5166,380.3802)"
       id="use7" />
    <symbol
       id="font_1_2">
      <path
         d="m 0.23200003,0.00999999 c 0,0.00299999 0,0.005 -0.017,0.022 C 0.09,0.15799999 0.058,0.347 0.058,0.5 c 0,0.174 0.038,0.34800007 0.16100001,0.47300007 0.013,0.0119999 0.013,0.014 0.013,0.0169999 0,0.007 -0.004,0.01 -0.01,0.01 -0.01,0 -0.1,-0.0679999 -0.15900001,-0.195 C 0.012,0.69500008 0,0.584 0,0.5 0,0.422 0.011,0.301 0.066,0.188 0.126,0.065 0.21200001,0 0.222,0 c 0.006,0 0.01,0.00299999 0.01,0.00999999 z"
         id="path7" />
    </symbol>
    <use
       xlink:href="#font_1_2"
       transform="matrix(27.673888,0,0,-27.673888,900.98416,381.26576)"
       id="use8" />
    <use
       xlink:href="#font_0_a"
       transform="matrix(27.673888,0,0,-27.673888,909.8081,374.6517)"
       id="use9" />
    <symbol
       id="font_1_3">
      <path
         d="M 0.232,0.5 C 0.232,0.578 0.221,0.699 0.166,0.81200006 0.106,0.93500009 0.02,1 0.01,1 0.004,1 0,0.99600008 0,0.99 0,0.98700007 0,0.985 0.019,0.967 0.11700001,0.86800006 0.174,0.709 0.174,0.5 0.174,0.329 0.137,0.153 0.013,0.027 0,0.01499999 0,0.01299998 0,0.00999999 0,0.00399999 0.004,0 0.01,0 0.02,0 0.11000001,0.06799999 0.169,0.195 0.22,0.305 0.232,0.416 0.232,0.5 Z"
         id="path9" />
    </symbol>
    <use
       xlink:href="#font_1_3"
       transform="matrix(27.673888,0,0,-27.673888,926.3996,381.26576)"
       id="use10" />
    <path
       transform="matrix(2.7673999,0,0,-2.7673999,869.7111,410.9056)"
       stroke-width="0.39998"
       stroke-linecap="butt"
       stroke-miterlimit="10"
       stroke-linejoin="miter"
       fill="none"
       stroke="#000000"
       d="M 0,0 V 8.61108"
       id="path10" />
    <use
       xlink:href="#font_0_7"
       transform="matrix(27.673888,0,0,-27.673888,828.628,434.15284)"
       id="use11" />
    <use
       xlink:href="#font_0_2"
       transform="matrix(27.673888,0,0,-27.673888,858.5711,440.18574)"
       id="use12" />
    <use
       xlink:href="#font_1_2"
       transform="matrix(27.673888,0,0,-27.673888,878.04519,441.0713)"
       id="use13" />
    <symbol
       id="font_0_8">
      <path
         d="m 0.33300004,0.38900004 c -0.018,0.037 -0.047,0.064 -0.092,0.064 C 0.124,0.45300005 0,0.30600003 0,0.16000001 0,0.06600001 0.05500001,0 0.133,0 0.153,0 0.203,0.004 0.263,0.075 0.271,0.033 0.306,0 0.354,0 c 0.035,0 0.058,0.023 0.074,0.05500001 0.017,0.036 0.03,0.097 0.03,0.09900001 0,0.01 -0.009,0.01 -0.012,0.01 -0.01,0 -0.011,-0.004 -0.014,-0.018 C 0.41500003,0.081 0.397,0.022 0.35600005,0.022 c -0.027,0 -0.03,0.026 -0.03,0.046 0,0.022 0.002,0.03000001 0.013,0.07400002 0.011,0.042 0.013,0.052 0.022,0.09 l 0.036,0.14000002 c 0.007,0.028 0.007,0.03 0.007,0.034 0,0.017 -0.012,0.027 -0.029,0.027 -0.024,0 -0.039,-0.022 -0.042,-0.044 m -0.065,-0.25900003 C 0.263,0.112 0.263,0.11000001 0.24800001,0.093 0.20400001,0.038 0.163,0.022 0.135,0.022 c -0.05000001,0 -0.06399999,0.055 -0.06399999,0.09400001 0,0.05 0.03199999,0.17300003 0.05499999,0.21899999 0.031,0.059 0.076,0.096 0.116,0.096 0.065,0 0.079,-0.082 0.079,-0.088 0,-0.006 -0.002,-0.012 -0.003,-0.017 z"
         id="path13" />
    </symbol>
    <use
       xlink:href="#font_0_8"
       transform="matrix(27.673888,0,0,-27.673888,887.17636,434.45726)"
       id="use14" />
    <use
       xlink:href="#font_1_3"
       transform="matrix(27.673888,0,0,-27.673888,902.27456,441.0713)"
       id="use15" />
  </g>
</svg>
