<?xml version="1.0" encoding="UTF-8" standalone="no"?>
<svg
   version="1.1"
   width="82.604828pt"
   height="84.573647pt"
   viewBox="0 0 82.604829 84.573647"
   id="svg6"
   xmlns:xlink="http://www.w3.org/1999/xlink"
   xmlns="http://www.w3.org/2000/svg"
   xmlns:svg="http://www.w3.org/2000/svg">
  <defs
     id="defs6" />
  <g
     enable-background="new"
     id="g6"
     transform="translate(-828.25304,-355.61209)">
    <symbol
       id="font_0_7">
      <path
         d="m 0.40300004,0.60700008 c 0.007,0.028 0.011,0.034 0.023,0.037 0.009,0.002 0.042,0.002 0.063,0.002 0.10100003,0 0.14600004,-0.004 0.14600004,-0.082 0,-0.015 -0.004,-0.0539999 -0.008,-0.08 -9.9999e-4,-0.004 -0.003,-0.016 -0.003,-0.019 0,-0.006 0.003,-0.013 0.0120001,-0.013 0.0109999,0 0.013,0.008 0.0149999,0.023 l 0.0270001,0.17400004 c 9.9994e-4,0.004 0.002,0.014 0.002,0.0169999 0,0.0110001 -0.0100001,0.0110001 -0.027,0.0110001 H 0.09800001 C 0.074,0.67700007 0.073,0.67600008 0.066,0.657 L 0.006,0.48100005 c -0.001,-0.002 -0.006,-0.016 -0.006,-0.018 0,-0.006 0.005,-0.011 0.012,-0.011 0.01,0 0.011,0.005 0.017,0.021 C 0.08300001,0.628 0.109,0.646 0.25700004,0.646 h 0.039 c 0.028,0 0.028,-0.004 0.028,-0.012 0,-0.006 -0.003,-0.0179999 -0.004,-0.0209999 L 0.186,0.079 C 0.177,0.04200001 0.174,0.031 0.067,0.031 0.031,0.031 0.025,0.031 0.025,0.012 0.025,0 0.036,0 0.042,0 c 0.02700001,0 0.055,0.002 0.082,0.002 0.028,0 0.057,0.001 0.085,0.001 0.028,0 0.056,-0.001 0.083,-0.001 C 0.321,0.002 0.351,0 0.379,0 c 0.01,0 0.022,0 0.022,0.02 0,0.011 -0.008,0.011 -0.034,0.011 -0.025,0 -0.038,0 -0.064,0.002 -0.029,0.003 -0.037,0.006 -0.037,0.02200001 0,9.9999e-4 0,0.006 0.004,0.021 z"
         id="path1" />
    </symbol>
    <use
       xlink:href="#font_0_7"
       transform="matrix(27.673888,0,0,-27.673888,828.25308,374.3473)"
       id="use1" />
    <symbol
       id="font_1_2">
      <path
         d="m 0.66700008,0.20100002 c 0,0.022 -0.006,0.032 -0.0140001,0.032 -0.005,0 -0.0129999,-0.007 -0.014,-0.026 -0.004,-0.096 -0.07,-0.15099999 -0.14,-0.15099999 -0.063,0 -0.111,0.043 -0.15999997,0.08599999 -0.051,0.046 -0.10300003,0.092 -0.17100003,0.092 C 0.05900001,0.23400001 0,0.124 0,0.03300001 0,0.001 0.013,0.001 0.014,0.001 c 0.011,0 0.014,0.02000001 0.014,0.023 0.004,0.11000002 0.07899999,0.15400002 0.14,0.15400002 0.063,0 0.111,-0.043 0.16,-0.08600001 C 0.379,0.046 0.43100003,0 0.499,0 0.60800006,0 0.66700008,0.11000002 0.66700008,0.20100002 Z"
         id="path2" />
    </symbol>
    <use
       xlink:href="#font_1_2"
       transform="matrix(27.673888,0,0,-27.673888,866.0387,370.66667)"
       id="use2" />
    <symbol
       id="font_0_2">
      <path
         d="m 0.12000001,0.04800001 c -0.004,-0.01300001 -0.005,-0.015 -0.005,-0.02000001 0,-0.022 0.019,-0.028 0.029,-0.028 0.005,0 0.027,0.00300001 0.037,0.02600001 0.003,0.008 0.008,0.04099999 0.035,0.18299999 0.009,-0.001 0.016,-0.002 0.033,-0.002 C 0.41500003,0.207 0.569,0.36400003 0.569,0.522 0.569,0.6 0.53000006,0.66 0.45499999,0.66 0.31,0.66 0.25,0.46600003 0.19000001,0.27100004 c -0.10800001,0.02 -0.164,0.076 -0.164,0.148 0,0.028 0.023,0.13800003 0.083,0.20700003 0.008,0.009 0.008,0.0109999 0.008,0.013 0,0.004 -0.002,0.01 -0.012,0.01 C 0.07700001,0.64900007 0,0.504 0,0.40800003 0,0.314 0.066,0.24100001 0.17300001,0.216 l -0.053,-0.16799999 m 0.13800002,0.21700002 c -0.008,0 -0.01,0 -0.018,9.9997e-4 -0.012,0 -0.013,0.001 -0.013,0.004 0,0.002 0.017,0.0930001 0.02,0.10800003 C 0.278,0.50600007 0.356,0.602 0.44500003,0.602 0.514,0.602 0.541,0.54800006 0.541,0.5 0.541,0.38700003 0.412,0.26500003 0.25800003,0.26500003 Z"
         id="path3" />
    </symbol>
    <use
       xlink:href="#font_0_2"
       transform="matrix(27.673888,0,0,-27.673888,895.11148,380.3802)"
       id="use3" />
    <path
       transform="matrix(2.7673999,0,0,-2.7673999,869.7111,410.9056)"
       stroke-width="0.39998"
       stroke-linecap="butt"
       stroke-miterlimit="10"
       stroke-linejoin="miter"
       fill="none"
       stroke="#000000"
       d="M 0,0 V 8.61108"
       id="path4" />
    <symbol
       id="font_0_6">
      <path
         d="m 0.265,0.32500003 h 0.097 c 0.075,0 0.083,-0.016 0.083,-0.045 0,-0.007 0,-0.019 -0.007,-0.049 -0.002,-0.005 -0.003,-0.009 -0.003,-0.011 0,-0.008 0.006,-0.012 0.012,-0.012 0.01,0 0.01,0.003 0.015,0.021 L 0.517,0.446 C 0.52,0.457 0.52,0.459 0.52,0.462 c 0,0.002 -0.002,0.011 -0.0120001,0.011 -0.01,0 -0.0109999,-0.005 -0.015,-0.021 -0.021,-0.078 -0.044,-0.096 -0.12900001,-0.096 H 0.273 L 0.337,0.61 c 0.009,0.0350001 0.01,0.0390001 0.054,0.0390001 H 0.52300009 C 0.646,0.64900007 0.669,0.61600008 0.669,0.53900006 c 0,-0.023 0,-0.0270001 -0.003,-0.0540001 -0.002,-0.013 -0.002,-0.015 -0.002,-0.018 0,-0.005 0.003,-0.012 0.012,-0.012 0.011,0 0.0119999,0.006 0.014,0.025 l 0.02,0.17300005 c 0.003,0.027 -0.002,0.027 -0.027,0.027 h -0.49 c -0.02,0 -0.03,0 -0.03,-0.02 0,-0.0109999 0.009,-0.0109999 0.028,-0.0109999 0.037,0 0.065,0 0.065,-0.018 0,-0.004 0,-0.006 -0.005,-0.024 L 0.119,0.078 C 0.109,0.039 0.10700001,0.031 0.028,0.031 0.011,0.031 0,0.031 0,0.012 0,0 0.012,0 0.015,0 0.044,0 0.118,0.003 0.147,0.003 0.18,0.003 0.263,0 0.296,0 0.305,0 0.317,0 0.317,0.019 0.317,0.027 0.311,0.029 0.311,0.03 0.308,0.031 0.306,0.031 0.283,0.031 c -0.0219999,0 -0.027,0 -0.052,0.002 -0.029,0.003 -0.032,0.007 -0.032,0.02 0,0.002 0,0.008 0.004,0.02300001 z"
         id="path5" />
    </symbol>
    <use
       xlink:href="#font_0_6"
       transform="matrix(27.673888,0,0,-27.673888,846.2794,434.15284)"
       id="use5" />
    <use
       xlink:href="#font_0_2"
       transform="matrix(27.673888,0,0,-27.673888,877.46786,440.18574)"
       id="use6" />
  </g>
</svg>
