<?xml version="1.0" encoding="UTF-8" standalone="no"?>
<svg
   version="1.1"
   width="126.66339pt"
   height="81.691338pt"
   viewBox="0 0 126.66339 81.691338"
   id="svg9"
   xmlns:xlink="http://www.w3.org/1999/xlink"
   xmlns="http://www.w3.org/2000/svg"
   xmlns:svg="http://www.w3.org/2000/svg">
  <defs
     id="defs9" />
  <g
     enable-background="new"
     id="g9"
     transform="translate(-805.96968,-355.14166)">
    <symbol
       id="font_0_4">
      <path
         d="m 0.40300004,0.60700008 c 0.007,0.028 0.011,0.034 0.023,0.037 0.009,0.002 0.042,0.002 0.063,0.002 0.10100003,0 0.14600004,-0.004 0.14600004,-0.082 0,-0.015 -0.004,-0.0539999 -0.008,-0.08 -9.9999e-4,-0.004 -0.003,-0.016 -0.003,-0.019 0,-0.006 0.003,-0.013 0.0120001,-0.013 0.0109999,0 0.013,0.008 0.0149999,0.023 l 0.0270001,0.17400004 c 9.9994e-4,0.004 0.002,0.014 0.002,0.0169999 0,0.0110001 -0.0100001,0.0110001 -0.027,0.0110001 H 0.09800001 C 0.074,0.67700007 0.073,0.67600008 0.066,0.657 L 0.006,0.48100005 c -0.001,-0.002 -0.006,-0.016 -0.006,-0.018 0,-0.006 0.005,-0.011 0.012,-0.011 0.01,0 0.011,0.005 0.017,0.021 C 0.08300001,0.628 0.109,0.646 0.25700004,0.646 h 0.039 c 0.028,0 0.028,-0.004 0.028,-0.012 0,-0.006 -0.003,-0.0179999 -0.004,-0.0209999 L 0.186,0.079 C 0.177,0.04200001 0.174,0.031 0.067,0.031 0.031,0.031 0.025,0.031 0.025,0.012 0.025,0 0.036,0 0.042,0 c 0.02700001,0 0.055,0.002 0.082,0.002 0.028,0 0.057,0.001 0.085,0.001 0.028,0 0.056,-0.001 0.083,-0.001 C 0.321,0.002 0.351,0 0.379,0 c 0.01,0 0.022,0 0.022,0.02 0,0.011 -0.008,0.011 -0.034,0.011 -0.025,0 -0.038,0 -0.064,0.002 -0.029,0.003 -0.037,0.006 -0.037,0.02200001 0,9.9999e-4 0,0.006 0.004,0.021 z"
         id="path1" />
    </symbol>
    <symbol
       id="font_0_2">
      <path
         d="m 0.12000001,0.04800001 c -0.004,-0.01300001 -0.005,-0.015 -0.005,-0.02000001 0,-0.022 0.019,-0.028 0.029,-0.028 0.005,0 0.027,0.00300001 0.037,0.02600001 0.003,0.008 0.008,0.04099999 0.035,0.18299999 0.009,-0.001 0.016,-0.002 0.033,-0.002 C 0.41500003,0.207 0.569,0.36400003 0.569,0.522 0.569,0.6 0.53000006,0.66 0.45499999,0.66 0.31,0.66 0.25,0.46600003 0.19000001,0.27100004 c -0.10800001,0.02 -0.164,0.076 -0.164,0.148 0,0.028 0.023,0.13800003 0.083,0.20700003 0.008,0.009 0.008,0.0109999 0.008,0.013 0,0.004 -0.002,0.01 -0.012,0.01 C 0.07700001,0.64900007 0,0.504 0,0.40800003 0,0.314 0.066,0.24100001 0.17300001,0.216 l -0.053,-0.16799999 m 0.13800002,0.21700002 c -0.008,0 -0.01,0 -0.018,9.9997e-4 -0.012,0 -0.013,0.001 -0.013,0.004 0,0.002 0.017,0.0930001 0.02,0.10800003 C 0.278,0.50600007 0.356,0.602 0.44500003,0.602 0.514,0.602 0.541,0.54800006 0.541,0.5 0.541,0.38700003 0.412,0.26500003 0.25800003,0.26500003 Z"
         id="path2" />
    </symbol>
    <use
       xlink:href="#font_0_4"
       transform="matrix(27.673888,0,0,-27.673888,821.5891,374.3473)"
       id="use2" />
    <use
       xlink:href="#font_0_2"
       transform="matrix(27.673888,0,0,-27.673888,851.5322,380.3802)"
       id="use3" />
    <symbol
       id="font_1_6">
      <path
         d="M 0.549,0.58000007 C 0.555,0.59300008 0.556,0.595 0.556,0.6 c 0,0.0110001 -0.009,0.0200001 -0.02,0.0200001 -0.01,0 -0.0159999,-0.007 -0.023,-0.022 L 0.278,0.06900001 0.043,0.59900006 c -0.008,0.019 -0.016,0.021 -0.023,0.021 -0.011,0 -0.02,-0.009 -0.02,-0.0200001 0,-0.002 0,-0.004 0.006,-0.0159999 L 0.255,0.021 C 0.263,0.004 0.269,0 0.278,0 0.291,0 0.294,0.007 0.3,0.021 Z"
         id="path3" />
    </symbol>
    <use
       xlink:href="#font_1_6"
       transform="matrix(27.673888,0,0,-27.673888,875.9414,374.95613)"
       id="use4" />
    <symbol
       id="font_0_1">
      <path
         d="m 0.453,0.873 c 0.001,0.004 0.003,0.01 0.003,0.015 0,0.01 -0.007,0.0110001 -0.012,0.0110001 -0.01,0 -0.011,-0.002 -0.015,-0.02 L 0.263,0.21800001 c -0.076,0.009 -0.114,0.046 -0.114,0.11199999 0,0.02 0,0.046 0.054,0.18600006 0.004,0.0119999 0.011,0.0289999 0.011,0.049 0,0.0449999 -0.032,0.082 -0.082,0.082 -0.095,4e-8 -0.132,-0.145 -0.132,-0.15400002 0,-0.01 0.01,-0.01 0.012,-0.01 0.01,0 0.011,0.002 0.016,0.018 C 0.05500001,0.5960001 0.09500001,0.625 0.12900001,0.625 c 0.008,0 0.025,0 0.025,-0.0319999 0,-0.026 -0.01,-0.051 -0.023,-0.0860001 -0.048,-0.12599995 -0.048,-0.15199997 -0.048,-0.169 0,-0.095 0.07800001,-0.136 0.17399999,-0.14199999 -0.008,-0.036 -0.008,-0.038 -0.022,-0.091 -0.003,-0.011 -0.023,-0.092 -0.023,-0.095 C 0.212,0.009 0.212,0 0.224,0 0.226,0 0.231,0 0.233,0.00400001 0.236,0.006 0.242,0.031 0.245,0.045 l 0.038,0.149 c 0.037,0 0.125,0 0.21900006,0.107 0.041,0.046 0.062,0.09 0.073,0.12 0.009,0.025 0.031,0.112 0.031,0.156 0,0.056 -0.027,0.0700001 -0.044,0.0700001 -0.025,0 -0.0500001,-0.026 -0.0500001,-0.048 0,-0.0130001 0.006,-0.019 0.0150001,-0.0270001 0.011,-0.011 0.0359999,-0.037 0.0359999,-0.085 0,-0.064 -0.0519999,-0.146 -0.087,-0.18200003 -0.088,-0.089 -0.15199999,-0.089 -0.18799999,-0.089 z"
         id="path4" />
    </symbol>
    <use
       xlink:href="#font_0_1"
       transform="matrix(27.673888,0,0,-27.673888,899.8219,380.02046)"
       id="use5" />
    <path
       transform="matrix(2.7673999,0,0,-2.7673999,828.9778,407.55546)"
       stroke-width="0.39998"
       stroke-linecap="butt"
       stroke-miterlimit="10"
       stroke-linejoin="miter"
       fill="none"
       stroke="#000000"
       d="M 0,0 14.63658,7.31828"
       id="path5" />
    <path
       transform="matrix(2.7673999,0,0,-2.7673999,909.9861,407.55546)"
       stroke-width="0.39998"
       stroke-linecap="butt"
       stroke-miterlimit="10"
       stroke-linejoin="miter"
       fill="none"
       stroke="#000000"
       d="M 0,0 -14.63658,7.31828"
       id="path6" />
    <use
       xlink:href="#font_0_4"
       transform="matrix(27.673888,0,0,-27.673888,805.9697,430.80006)"
       id="use6" />
    <use
       xlink:href="#font_0_2"
       transform="matrix(27.673888,0,0,-27.673888,835.91287,436.83296)"
       id="use7" />
    <use
       xlink:href="#font_0_4"
       transform="matrix(27.673888,0,0,-27.673888,886.5007,430.80006)"
       id="use8" />
    <use
       xlink:href="#font_0_1"
       transform="matrix(27.673888,0,0,-27.673888,915.8627,436.4732)"
       id="use9" />
  </g>
</svg>
