<?xml version="1.0" encoding="UTF-8" standalone="no"?>
<svg
   version="1.1"
   width="76.909241pt"
   height="86.046616pt"
   viewBox="0 0 76.909242 86.046616"
   id="svg9"
   xmlns:xlink="http://www.w3.org/1999/xlink"
   xmlns="http://www.w3.org/2000/svg"
   xmlns:svg="http://www.w3.org/2000/svg">
  <defs
     id="defs9" />
  <g
     enable-background="new"
     id="g9"
     transform="translate(-831.10857,-355.14163)">
    <symbol
       id="font_0_4">
      <path
         d="m 0.40300004,0.60700008 c 0.007,0.028 0.011,0.034 0.023,0.037 0.009,0.002 0.042,0.002 0.063,0.002 0.10100003,0 0.14600004,-0.004 0.14600004,-0.082 0,-0.015 -0.004,-0.0539999 -0.008,-0.08 -9.9999e-4,-0.004 -0.003,-0.016 -0.003,-0.019 0,-0.006 0.003,-0.013 0.0120001,-0.013 0.0109999,0 0.013,0.008 0.0149999,0.023 l 0.0270001,0.17400004 c 9.9994e-4,0.004 0.002,0.014 0.002,0.0169999 0,0.0110001 -0.0100001,0.0110001 -0.027,0.0110001 H 0.09800001 C 0.074,0.67700007 0.073,0.67600008 0.066,0.657 L 0.006,0.48100005 c -0.001,-0.002 -0.006,-0.016 -0.006,-0.018 0,-0.006 0.005,-0.011 0.012,-0.011 0.01,0 0.011,0.005 0.017,0.021 C 0.08300001,0.628 0.109,0.646 0.25700004,0.646 h 0.039 c 0.028,0 0.028,-0.004 0.028,-0.012 0,-0.006 -0.003,-0.0179999 -0.004,-0.0209999 L 0.186,0.079 C 0.177,0.04200001 0.174,0.031 0.067,0.031 0.031,0.031 0.025,0.031 0.025,0.012 0.025,0 0.036,0 0.042,0 c 0.02700001,0 0.055,0.002 0.082,0.002 0.028,0 0.057,0.001 0.085,0.001 0.028,0 0.056,-0.001 0.083,-0.001 C 0.321,0.002 0.351,0 0.379,0 c 0.01,0 0.022,0 0.022,0.02 0,0.011 -0.008,0.011 -0.034,0.011 -0.025,0 -0.038,0 -0.064,0.002 -0.029,0.003 -0.037,0.006 -0.037,0.02200001 0,9.9999e-4 0,0.006 0.004,0.021 z"
         id="path1" />
    </symbol>
    <use
       xlink:href="#font_0_4"
       transform="matrix(27.673888,0,0,-27.673888,831.1086,374.3473)"
       id="use1" />
    <symbol
       id="font_1_2">
      <path
         d="m 0.551,0.67800006 c 0.005,0.011 0.005,0.013 0.005,0.018 0,0.01 -0.008,0.0199999 -0.0200001,0.0199999 -0.013,0 -0.019,-0.0119999 -0.023,-0.023 L 0.43,0.47300006 H 0.126 L 0.043,0.693 C 0.038,0.7070001 0.033,0.716 0.02,0.716 0.01,0.716 0,0.706 0,0.6960001 c 0,-0.002 0,-0.004 0.006,-0.018 L 0.25500003,0.023 c 0.005,-0.014 0.01,-0.023 0.023,-0.023 0.014,0 0.018,0.011 0.022,0.021 L 0.551,0.67800006 M 0.142,0.43300004 h 0.27200004 l -0.136,-0.35600003 z"
         id="path2" />
    </symbol>
    <use
       xlink:href="#font_1_2"
       transform="matrix(27.673888,0,0,-27.673888,859.6833,374.95613)"
       id="use2" />
    <symbol
       id="font_0_5">
      <path
         d="m 0.305,0.31300003 c 0.006,0.026 0.029,0.118 0.099,0.118 0.005,0 0.029,0 0.05,-0.013 -0.028,-0.005 -0.048,-0.03 -0.048,-0.054 0,-0.016 0.011,-0.035 0.038,-0.035 0.022,0 0.054,0.018 0.054,0.058 0,0.052 -0.059,0.066 -0.093,0.066 -0.058,0 -0.093,-0.053 -0.105,-0.076 -0.025,0.066 -0.079,0.076 -0.10799998,0.076 -0.10400001,2e-8 -0.16100002,-0.12899999 -0.16100002,-0.154 0,-0.01 0.01,-0.01 0.01200001,-0.01 0.008,0 0.011,0.002 0.01299999,0.011 0.034,0.10600003 0.1,0.13100003 0.13400001,0.13100003 0.019,0 0.054,-0.009 0.054,-0.067 0,-0.031 -0.017,-0.098 -0.054,-0.23800003 -0.016,-0.062 -0.051,-0.104 -0.095,-0.104 -0.006,0 -0.029,0 -0.05000001,0.013 0.02500001,0.005 0.04700001,0.026 0.04700001,0.054 0,0.02700001 -0.022,0.03500001 -0.037,0.03500001 C 0.025,0.12400001 0,0.09800001 0,0.06600001 0,0.02 0.05000001,0 0.09400001,0 c 0.066,0 0.102,0.07000001 0.10500001,0.07600001 C 0.21100001,0.039 0.24700003,0 0.307,0 c 0.103,0 0.16,0.12900001 0.16,0.15400002 0,0.01 -0.009,0.01 -0.012,0.01 -0.009,0 -0.011,-0.004 -0.013,-0.011 C 0.409,0.046 0.341,0.022 0.30900003,0.022 c -0.039,0 -0.055,0.032 -0.055,0.06600001 0,0.022 0.006,0.04400001 0.017,0.08800001 z"
         id="path3" />
    </symbol>
    <symbol
       id="font_0_2">
      <path
         d="m 0.12000001,0.04800001 c -0.004,-0.01300001 -0.005,-0.015 -0.005,-0.02000001 0,-0.022 0.019,-0.028 0.029,-0.028 0.005,0 0.027,0.00300001 0.037,0.02600001 0.003,0.008 0.008,0.04099999 0.035,0.18299999 0.009,-0.001 0.016,-0.002 0.033,-0.002 C 0.41500003,0.207 0.569,0.36400003 0.569,0.522 0.569,0.6 0.53000006,0.66 0.45499999,0.66 0.31,0.66 0.25,0.46600003 0.19000001,0.27100004 c -0.10800001,0.02 -0.164,0.076 -0.164,0.148 0,0.028 0.023,0.13800003 0.083,0.20700003 0.008,0.009 0.008,0.0109999 0.008,0.013 0,0.004 -0.002,0.01 -0.012,0.01 C 0.07700001,0.64900007 0,0.504 0,0.40800003 0,0.314 0.066,0.24100001 0.17300001,0.216 l -0.053,-0.16799999 m 0.13800002,0.21700002 c -0.008,0 -0.01,0 -0.018,9.9997e-4 -0.012,0 -0.013,0.001 -0.013,0.004 0,0.002 0.017,0.0930001 0.02,0.10800003 C 0.278,0.50600007 0.356,0.602 0.44500003,0.602 0.514,0.602 0.541,0.54800006 0.541,0.5 0.541,0.38700003 0.412,0.26500003 0.25800003,0.26500003 Z"
         id="path4" />
    </symbol>
    <use
       xlink:href="#font_0_5"
       transform="matrix(27.673888,0,0,-27.673888,875.86087,374.6517)"
       id="use4" />
    <use
       xlink:href="#font_0_2"
       transform="matrix(27.673888,0,0,-27.673888,892.2714,380.3802)"
       id="use5" />
    <path
       transform="matrix(2.7673999,0,0,-2.7673999,869.7111,410.9056)"
       stroke-width="0.39998"
       stroke-linecap="butt"
       stroke-miterlimit="10"
       stroke-linejoin="miter"
       fill="none"
       stroke="#000000"
       d="M 0,0 V 8.61108"
       id="path5" />
    <use
       xlink:href="#font_0_4"
       transform="matrix(27.673888,0,0,-27.673888,839.7364,434.15284)"
       id="use6" />
    <use
       xlink:href="#font_0_2"
       transform="matrix(27.673888,0,0,-27.673888,869.6795,440.18574)"
       id="use7" />
    <symbol
       id="font_2_3">
      <path
         d="M 0.201,0.11600001 C 0.19100002,0.082 0.15800002,0.028 0.107,0.028 c -0.003,0 -0.03299999,0 -0.054,0.01400001 C 0.09400001,0.05500001 0.09700001,0.091 0.09700001,0.097 c 0,0.022 -0.017,0.037 -0.04,0.037 C 0.02900001,0.134 0,0.11 0,0.073 0,0.023 0.056,0 0.10500001,0 c 0.046,0 0.087,0.029 0.112,0.071 C 0.241,0.018 0.296,0 0.336,0 c 0.115,0 0.176,0.125 0.176,0.15300001 0,0.013 -0.013,0.013 -0.016,0.013 -0.014,0 -0.015,-0.005 -0.019,-0.017 C 0.456,0.08 0.39600004,0.028 0.34,0.028 c -0.04,0 -0.061,0.02700001 -0.061,0.065 0,0.026 0.024,0.11700001 0.052,0.228 0.02,0.077 0.065,0.102 0.098,0.102 0.002,0 0.033,0 0.054,-0.014 C 0.451,0.4 0.439,0.372 0.439,0.354 c 0,-0.022 0.017,-0.037 0.04,-0.037 0.0230001,0 0.056,0.019 0.056,0.061 0,0.056 -0.0639999,0.073 -0.10399997,0.073 -0.05,0 -0.09,-0.033 -0.11200003,-0.071 -0.018,0.041 -0.064,0.071 -0.12,0.071 -0.11199999,0 -0.176,-0.123 -0.176,-0.153 0,-0.013 0.014,-0.013 0.01700001,-0.013 0.01299999,0 0.014,0.004 0.019,0.017 0.02499999,0.078 0.08800001,0.121 0.137,0.121 0.033,0 0.06,-0.018 0.06,-0.066 0,-0.02 -0.012,-0.07 -0.021,-0.10399997 z"
         id="path7" />
    </symbol>
    <symbol
       id="font_2_2">
      <path
         d="m 0.204,0.405 h 0.10200003 c 0.019,0 0.032,0 0.032,0.022 0,0.014 -0.013,0.014 -0.03,0.014 h -0.095 l 0.037,0.14800007 c 9.9999e-4,0.005 0.003,0.01 0.003,0.014 0,0.0179999 -0.014,0.0319999 -0.034,0.0319999 -0.025,0 -0.04,-0.0169999 -0.047,-0.043 -0.007,-0.0249999 0.006,0.023 -0.038,-0.151 H 0.032 C 0.013,0.441 0,0.441 0,0.419 0,0.405 0.012,0.405 0.03,0.405 H 0.125 L 0.066,0.16900002 C 0.06,0.14400001 0.051,0.108 0.051,0.095 0.051,0.036 0.101,0 0.15799999,0 c 0.11100004,0 0.17400004,0.14000002 0.17400004,0.15300001 0,0.013 -0.013,0.013 -0.016,0.013 -0.012,0 -0.013,-0.002 -0.021,-0.019 C 0.26700003,0.084 0.21600002,0.028 0.16100002,0.028 c -0.021,0 -0.035,0.013 -0.035,0.049 0,0.01000001 0.004,0.031 0.006,0.041 z"
         id="path8" />
    </symbol>
    <use
       xlink:href="#font_2_3"
       transform="matrix(19.371666,0,0,-19.371666,887.3465,424.30494)"
       id="use8" />
    <use
       xlink:href="#font_2_2"
       transform="matrix(19.371666,0,0,-19.371666,887.2303,441.18824)"
       id="use9" />
  </g>
</svg>
